HIERARCHY
ROOT hip
{
  OFFSET 0 0 0
  CHANNELS 6 Xposition Yposition Zposition Zrotation Yrotation Xrotation
  JOINT abdomen
  {
    OFFSET 0 20.6881 -0.73152
    CHANNELS 3 Zrotation Xrotation Yrotation
    JOINT chest
    {
      OFFSET 0 11.7043 -0.48768
      CHANNELS 3 Zrotation Xrotation Yrotation
      JOINT neck
      {
        OFFSET 0 22.1894 -2.19456
        CHANNELS 3 Zrotation Xrotation Yrotation
        JOINT head
        {
          OFFSET -0.24384 7.07133 1.2192
          CHANNELS 3 Zrotation Xrotation Yrotation
          JOINT leftEye
          {
            OFFSET 4.14528 8.04674 8.04672
            CHANNELS 3 Zrotation Xrotation Yrotation
            End Site
            {
              OFFSET 1 0 0
            }
          }
          JOINT rightEye
          {
            OFFSET -3.6576 8.04674 8.04672
            CHANNELS 3 Zrotation Xrotation Yrotation
            End Site
            {
              OFFSET 1 0 0
            }
          }
        }
      }
      JOINT rCollar
      {
        OFFSET -2.68224 19.2634 -4.8768
        CHANNELS 3 Zrotation Xrotation Yrotation
        JOINT rShldr
        {
          OFFSET -8.77824 -1.95073 1.46304
          CHANNELS 3 Zrotation Xrotation Yrotation
          JOINT rForeArm
          {
            OFFSET -28.1742 -1.7115 0.48768
            CHANNELS 3 Zrotation Xrotation Yrotation
            JOINT rHand
            {
              OFFSET -22.5879 0.773209 7.07136
              CHANNELS 3 Zrotation Xrotation Yrotation
              JOINT rThumb1
              {
                OFFSET -1.2192 -0.487915 3.41376
                CHANNELS 3 Zrotation Xrotation Yrotation
                JOINT rThumb2
                {
                  OFFSET -3.37035 -0.52449 3.41376
                  CHANNELS 3 Zrotation Xrotation Yrotation
                  End Site
                  {
                    OFFSET -1.78271 -1.18214 1.43049
                  }
                }
              }
              JOINT rIndex1
              {
                OFFSET -7.75947 0.938293 5.60832
                CHANNELS 3 Zrotation Xrotation Yrotation
                JOINT rIndex2
                {
                  OFFSET -2.54057 -0.884171 1.56538
                  CHANNELS 3 Zrotation Xrotation Yrotation
                  End Site
                  {
                    OFFSET -1.62519 -0.234802 1.16502
                  }
                }
              }
              JOINT rMid1
              {
                OFFSET -8.24714 1.18213 3.41376
                CHANNELS 3 Zrotation Xrotation Yrotation
                JOINT rMid2
                {
                  OFFSET -3.10165 -0.590103 1.0647
                  CHANNELS 3 Zrotation Xrotation Yrotation
                  End Site
                  {
                    OFFSET -2.48547 -0.328903 0.83742
                  }
                }
              }
              JOINT rRing1
              {
                OFFSET -8.82822 0.546677 1.51678
                CHANNELS 3 Zrotation Xrotation Yrotation
                JOINT rRing2
                {
                  OFFSET -2.60934 -0.819778 -0.0198488
                  CHANNELS 3 Zrotation Xrotation Yrotation
                  End Site
                  {
                    OFFSET -2.33842 -0.294052 0.168128
                  }
                }
              }
              JOINT rPinky1
              {
                OFFSET -8.27202 -0.0477905 -0.4584
                CHANNELS 3 Zrotation Xrotation Yrotation
                JOINT rPinky2
                {
                  OFFSET -1.82734 -0.647385 -0.700984
                  CHANNELS 3 Zrotation Xrotation Yrotation
                  End Site
                  {
                    OFFSET -1.69225 -0.51767 -0.607171
                  }
                }
              }
            }
          }
        }
      }
      JOINT lCollar
      {
        OFFSET 2.68224 19.2634 -4.8768
        CHANNELS 3 Zrotation Xrotation Yrotation
        JOINT lShldr
        {
          OFFSET 8.77824 -1.95073 1.46304
          CHANNELS 3 Zrotation Xrotation Yrotation
          JOINT lForeArm
          {
            OFFSET 28.1742 -1.7115 0.48768
            CHANNELS 3 Zrotation Xrotation Yrotation
            JOINT lHand
            {
              OFFSET 22.5879 0.773209 7.07136
              CHANNELS 3 Zrotation Xrotation Yrotation
              JOINT lThumb1
              {
                OFFSET 1.2192 -0.487915 3.41376
                CHANNELS 3 Zrotation Xrotation Yrotation
                JOINT lThumb2
                {
                  OFFSET 3.37035 -0.52449 3.41376
                  CHANNELS 3 Zrotation Xrotation Yrotation
                  End Site
                  {
                    OFFSET 1.78271 -1.18214 1.43049
                  }
                }
              }
              JOINT lIndex1
              {
                OFFSET 7.75947 0.938293 5.60832
                CHANNELS 3 Zrotation Xrotation Yrotation
                JOINT lIndex2
                {
                  OFFSET 2.54057 -0.884171 1.56538
                  CHANNELS 3 Zrotation Xrotation Yrotation
                  End Site
                  {
                    OFFSET 1.62519 -0.234802 1.16502
                  }
                }
              }
              JOINT lMid1
              {
                OFFSET 8.24714 1.18213 3.41376
                CHANNELS 3 Zrotation Xrotation Yrotation
                JOINT lMid2
                {
                  OFFSET 3.10165 -0.590103 1.0647
                  CHANNELS 3 Zrotation Xrotation Yrotation
                  End Site
                  {
                    OFFSET 2.48547 -0.328903 0.83742
                  }
                }
              }
              JOINT lRing1
              {
                OFFSET 8.82822 0.546677 1.51678
                CHANNELS 3 Zrotation Xrotation Yrotation
                JOINT lRing2
                {
                  OFFSET 2.60934 -0.819778 -0.0198488
                  CHANNELS 3 Zrotation Xrotation Yrotation
                  End Site
                  {
                    OFFSET 2.33842 -0.294052 0.168128
                  }
                }
              }
              JOINT lPinky1
              {
                OFFSET 8.27202 -0.0477905 -0.4584
                CHANNELS 3 Zrotation Xrotation Yrotation
                JOINT lPinky2
                {
                  OFFSET 1.82734 -0.647385 -0.700984
                  CHANNELS 3 Zrotation Xrotation Yrotation
                  End Site
                  {
                    OFFSET 1.69225 -0.51767 -0.607171
                  }
                }
              }
            }
          }
        }
      }
    }
  }
  JOINT rButtock
  {
    OFFSET -8.77824 4.35084 1.2192
    CHANNELS 3 Zrotation Xrotation Yrotation
    JOINT rThigh
    {
      OFFSET 0 -1.70687 -2.19456
      CHANNELS 3 Zrotation Xrotation Yrotation
      JOINT rShin
      {
        OFFSET 0 -36.8199 0.73152
        CHANNELS 3 Zrotation Xrotation Yrotation
        JOINT rFoot
        {
          OFFSET 0.73152 -45.1104 -5.12064
          CHANNELS 3 Zrotation Xrotation Yrotation
          End Site
          {
            OFFSET -1.1221 -3.69964 12.103
          }
        }
      }
    }
  }
  JOINT lButtock
  {
    OFFSET 8.77824 4.35084 1.2192
    CHANNELS 3 Zrotation Xrotation Yrotation
    JOINT lThigh
    {
      OFFSET 0 -1.70687 -2.19456
      CHANNELS 3 Zrotation Xrotation Yrotation
      JOINT lShin
      {
        OFFSET 0 -36.8199 0.73152
        CHANNELS 3 Zrotation Xrotation Yrotation
        JOINT lFoot
        {
          OFFSET -0.73152 -45.1104 -5.12064
          CHANNELS 3 Zrotation Xrotation Yrotation
          End Site
          {
            OFFSET 1.1221 -3.69964 12.103
          }
        }
      }
    }
  }
}
MOTION
Frames:	4
Frame Time:	0.00833333
26.1181 58.9657 30.125999999999998 1.819064 34.730762 2.54412 -3.263236 13.666553 -166.433012 1.348733 8.247118 176.840026 8.75918 24.916729 99.296246 -40.424074 16.315722 -111.41929 -0.001561 0.0 -0.003087 0.004897 0.0 0.000897 -158.467709 -30.055404 166.920493 114.299315 14.149545 -81.408019 -129.005429 -67.526301 75.134871 -170.217831 -7.618605 144.31773 -173.77064 -11.439957 89.891411 130.713332 -57.082837 94.073904 -46.208411 39.653894 36.317099 -9.80475 22.326392 4.035409 173.125265 -66.297952 137.616212 -5.232667 21.242819 4.697259 -145.120811 0.213056 -179.194936 -152.390241 -25.064143 -175.332159 -149.547861 27.153451 -145.546789 54.393446 81.989854 -17.575831 29.636393 58.070934 -32.037539 91.036018 -6.062906 -73.355793 1.462429 45.200671 74.672071 -169.828237 -23.94995 -142.607192 -4.531006 -4.514045 0.521085 126.561895 -17.54648 -113.794863 166.408452 -43.367104 -122.147839 -56.051328 -59.427393 -6.278166 -23.902607 -61.334056 -1.397726 42.334768 58.455718 -36.208647 145.0994 -1.521498 178.650963 152.121167 76.283287 -166.964421 82.432476 -51.044722 80.837813 2.200306 -13.111798 5.7575 179.995147 75.749794 0.005007 169.670893 12.310853 -79.111379 -98.673371 15.262386 35.900617 93.043723 23.080868 -3.968041 179.995147 75.749794 0.005007 -171.292219 29.662503 -0.0 -47.875322 76.910597 132.309584 72.606342 -77.452706 -14.051275
27.7061 58.991400000000006 32.2668 2.55245 39.585522 1.946059 -3.891227 18.578468 -0.0 1.883454 -13.250035 8.589762 -5.781286 34.412681 -152.159223 25.762964 44.710665 122.979816 -0.00256 0.0 -0.001539 -0.001756 -0.0 0.003403 -155.417003 -2.951645 161.717982 109.03554 13.403483 -109.130029 -131.65313 -71.666898 74.813049 -170.195155 -4.872339 143.539184 -173.769602 -11.440368 89.89157 56.771807 -69.401248 43.574086 -27.610039 30.76568 20.255012 103.907899 -62.771558 52.68437 -160.672262 -6.668022 143.2451 -158.684908 8.346843 141.068172 0.005709 1.772277 0.557063 -150.125158 38.872221 164.834175 -6.9053 -15.266158 -6.497795 15.203315 42.880824 8.545127 -0.117977 -0.714064 0.157865 -84.926827 20.733112 -42.925498 174.762709 -45.430484 -101.949138 -165.729719 -28.073166 -141.722784 -88.928136 -50.831151 -37.600045 33.138938 5.081191 8.104 -73.420851 -73.570749 -26.565075 47.242876 52.172672 -38.432166 0.057517 0.167908 -0.031968 17.946833 42.273096 -14.400705 145.099014 -1.521884 178.651752 157.194525 45.539408 -175.526135 144.258077 9.237248 141.011359 -2.072167 -0.734273 2.215624 179.999906 75.750598 9.7e-05 168.445904 8.820137 -126.871038 -98.23411 -19.45903 -171.674149 -149.808192 -16.570623 129.942395 0.0 0.000677 -0.000113 8.938292 -42.666554 6.21531 -75.565096 62.650622 -42.217065 -63.954366 61.699173 171.582989
29.1808 59.1372 34.4581 2.806378 44.805137 1.183262 -3.277598 18.567058 -8.27587 4.209742 -12.978609 14.346115 0.978026 15.451259 33.46477 -20.945503 -22.128263 -58.235731 -0.004137 0.0 -0.000667 0.0015 -0.0 -0.001676 -158.467217 -30.05537 166.920763 -65.468362 -14.929126 -97.087319 127.487162 -67.147076 -117.19942 -17.219623 10.421372 0.237233 -78.030539 38.689379 42.412725 72.540217 -48.164774 27.208928 -108.427498 34.161357 91.743285 -10.766816 26.262178 1.21914 -39.291007 53.365186 32.878996 18.193388 -42.067085 -0.039503 0.004744 0.917788 0.286568 -6.260186 62.266167 18.861186 -25.538031 -38.086897 -24.599757 -75.49904 -54.555352 -75.905725 155.549125 -3.804523 -161.89901 78.257915 -6.727213 38.85235 -73.584679 65.127673 146.822319 -169.743594 -8.841017 -146.42022 103.199459 36.33121 -60.111503 -23.498775 -32.094535 -24.538841 156.96179 -27.55078 -122.442187 78.613974 57.41496 -61.96672 160.098455 -4.901146 -142.968778 6.030682 23.204681 -5.438081 0.013992 -1.32296 0.417146 156.215293 -19.259046 -174.117409 143.936145 8.266 140.719006 162.336147 55.877259 146.676274 -179.996794 75.751259 -0.003308 166.159603 9.187572 1.976065 62.125833 83.208191 -117.485702 52.434632 26.326205 25.021651 0.003692 -0.000743 0.001846 7.733909 -39.958492 11.940004 -69.054672 69.236676 -45.189918 -165.63352 18.131758 -133.026789
30.536799999999996 59.3981 36.6524 2.399941 50.270155 0.154498 -2.87187 13.526232 -180.0 -3.329716 8.823925 -176.87695 6.920956 27.852186 118.618079 -33.213964 27.960692 -133.871362 0.005056 0.0 0.003501 -0.001327 0.0 -0.000348 -85.537321 68.182892 88.688992 -146.831009 65.441847 79.028528 3.465915 -25.389734 -148.836385 -173.539092 0.747036 142.215453 -173.98369 -11.650752 89.881743 -20.707608 -40.579218 1.915848 0.184603 -0.300584 -0.103144 -177.795185 -34.360452 106.358689 -0.397543 1.151599 0.223473 -170.180692 -25.985329 144.308938 0.00495 1.771398 0.556403 -155.591801 -1.612987 172.04419 -139.225336 -4.395938 -136.388726 46.35477 79.957318 -9.728962 13.947048 42.750537 -15.783897 -53.148273 8.297437 -88.328263 -100.992717 -23.091285 -53.544128 179.350459 30.705606 -150.14536 78.030782 38.689637 -42.412454 -22.225451 -25.461276 -20.034158 8.361126 12.23579 -5.303867 -80.183495 -59.0601 -31.425461 160.0982 -4.900938 -142.969693 42.491396 58.275196 -36.597116 0.014385 -1.323141 0.415958 -6.265859 33.661717 -5.57402 1.203265 -3.047503 1.116532 127.266594 -31.006271 125.740299 -0.0 -0.001514 -0.000819 -33.555943 -62.364008 -36.82253 30.180933 74.952376 2.86964 55.702349 -47.314118 -29.360145 179.990929 75.750119 0.006207 -171.12742 35.566684 -147.136592 -50.140993 -73.980157 55.934915 175.556564 0.28111 -94.723975
